<svg width="40" height="29" viewBox="0 0 40 29" fill="none" xmlns="http://www.w3.org/2000/svg">
<path d="M2.28197 2.07469H13.14C13.2318 2.07469 13.318 2.03975 13.3831 1.97627L14.4262 0.95863C14.7294 0.662883 15.1324 0.5 15.5612 0.5H32.0257C32.7924 0.5 33.5042 0.871529 33.9299 1.49402L35.9032 4.38162C36.1831 4.79153 36.2088 5.31561 35.9707 5.75012C35.7327 6.18464 35.2706 6.45431 34.7657 6.45431H26.2799V7.29086H30.626C31.7781 7.29086 32.8146 7.95863 33.2666 8.99251L35.8113 14.811L38.0404 15.681C39.2308 16.1456 40 17.2537 40 18.5046V23.893C40 24.6966 39.3296 25.3506 38.5059 25.3506H35.9122C35.6106 27.1344 34.0187 28.5 32.1059 28.5C30.1932 28.5 28.6013 27.1344 28.2996 25.3506H14.1216C13.8199 27.1344 12.228 28.5 10.3153 28.5C8.40252 28.5 6.81059 27.1344 6.50895 25.3506H1.32812C0.595715 25.3506 0 24.7695 0 24.0549V4.30091C0 3.07315 1.02345 2.07469 2.28197 2.07469ZM32.1059 27.2698C33.5385 27.2698 34.7037 26.133 34.7037 24.7355C34.7037 23.338 33.5385 22.2012 32.1059 22.2012C30.6734 22.2012 29.5082 23.338 29.5082 24.7355C29.5082 26.133 30.6734 27.2698 32.1059 27.2698ZM26.2799 24.1204H28.2986C28.3037 24.0894 28.3102 24.0594 28.3163 24.0289C28.3203 24.0082 28.3238 23.9875 28.3284 23.9669C28.3385 23.9186 28.3501 23.8709 28.3622 23.8232C28.3647 23.8133 28.3667 23.8035 28.3697 23.7936C28.3849 23.7361 28.4015 23.6795 28.4192 23.6234C28.4242 23.6071 28.4303 23.5909 28.4358 23.5742C28.4489 23.5348 28.4625 23.4954 28.4767 23.4566C28.4847 23.4359 28.4928 23.4152 28.5014 23.3946C28.5145 23.3606 28.5276 23.3266 28.5422 23.2932C28.5513 23.271 28.5614 23.2494 28.5715 23.2277C28.5856 23.1957 28.5997 23.1647 28.6149 23.1333C28.626 23.1111 28.6366 23.0895 28.6482 23.0673C28.6633 23.0373 28.6794 23.0068 28.6956 22.9773C28.7072 22.9556 28.7193 22.934 28.7314 22.9123C28.748 22.8828 28.7657 22.8533 28.7834 22.8242C28.796 22.8035 28.8086 22.7829 28.8212 22.7622C28.8404 22.7327 28.8595 22.7037 28.8792 22.6741C28.8923 22.6549 28.9049 22.6357 28.918 22.617C28.9397 22.586 28.9624 22.5555 28.9856 22.525C28.9972 22.5088 29.0088 22.4925 29.0209 22.4768C29.0522 22.4364 29.084 22.3976 29.1163 22.3587C29.1208 22.3528 29.1253 22.3469 29.1304 22.341C29.1677 22.2967 29.2066 22.2534 29.2459 22.2111C29.258 22.1978 29.2706 22.1855 29.2832 22.1727C29.311 22.1437 29.3387 22.1146 29.3675 22.0861C29.3836 22.0703 29.4003 22.0551 29.4164 22.0398C29.4421 22.0152 29.4683 21.9906 29.4951 21.9665C29.5127 21.9508 29.5309 21.935 29.5491 21.9193C29.5753 21.8966 29.6015 21.8745 29.6282 21.8523L29.6858 21.8066C29.7125 21.7854 29.7397 21.7647 29.767 21.7441C29.7866 21.7293 29.8068 21.7146 29.827 21.7003C29.8547 21.6801 29.883 21.6609 29.9117 21.6412C29.9319 21.6279 29.9521 21.6142 29.9723 21.6009C30.002 21.5812 30.0328 21.5625 30.0631 21.5438C30.0827 21.532 30.1024 21.5197 30.1226 21.5079C30.1559 21.4882 30.1902 21.4695 30.2245 21.4508C30.2421 21.441 30.2593 21.4311 30.2764 21.4218C30.3253 21.3962 30.3743 21.3716 30.4237 21.3479C30.4277 21.3465 30.4313 21.3445 30.4353 21.3425C30.4888 21.3174 30.5433 21.2933 30.5977 21.2707C30.6154 21.2633 30.6335 21.2569 30.6512 21.2495C30.6885 21.2348 30.7264 21.22 30.7647 21.2057C30.7864 21.1979 30.8086 21.191 30.8303 21.1831C30.8651 21.1713 30.8999 21.1595 30.9352 21.1486C30.9589 21.1413 30.9826 21.1344 31.0068 21.1275C31.0411 21.1176 31.0754 21.1078 31.1097 21.0989C31.1344 21.0925 31.1591 21.0862 31.1844 21.0802C31.2187 21.0719 31.253 21.0645 31.2878 21.0571C31.313 21.0517 31.3382 21.0463 31.3639 21.0414C31.3992 21.035 31.4346 21.0286 31.4704 21.0232C31.4956 21.0187 31.5203 21.0148 31.546 21.0114C31.5828 21.0059 31.6202 21.0015 31.658 20.9971C31.6817 20.9946 31.7059 20.9912 31.7301 20.9892C31.7715 20.9853 31.8134 20.9823 31.8552 20.9799C31.8759 20.9784 31.8961 20.9764 31.9168 20.9759C31.9798 20.9725 32.0424 20.971 32.1059 20.971C32.1695 20.971 32.232 20.9725 32.2951 20.9759C32.3158 20.9764 32.3359 20.9784 32.3566 20.9799C32.3985 20.9823 32.4404 20.9853 32.4817 20.9892C32.5059 20.9912 32.5301 20.9946 32.5538 20.9971C32.5917 21.0015 32.629 21.0059 32.6658 21.0114C32.6916 21.0148 32.7163 21.0187 32.7415 21.0232C32.7773 21.0286 32.8126 21.035 32.8479 21.0414C32.8736 21.0463 32.8989 21.0517 32.9241 21.0571C32.9589 21.0645 32.9932 21.0719 33.0275 21.0802C33.0527 21.0862 33.0774 21.0925 33.1021 21.0989C33.1364 21.1078 33.1707 21.1176 33.205 21.1275C33.2293 21.1344 33.253 21.1413 33.2767 21.1486C33.312 21.1595 33.3468 21.1713 33.3816 21.1831C33.4033 21.191 33.4255 21.1979 33.4472 21.2057C33.4855 21.22 33.5233 21.2348 33.5607 21.2495C33.5783 21.2569 33.5965 21.2633 33.6141 21.2707C33.6686 21.2933 33.7231 21.3174 33.7765 21.3425C33.7806 21.3445 33.7841 21.3465 33.7881 21.3479C33.8376 21.3716 33.8865 21.3962 33.9354 21.4218C33.9526 21.4311 33.9697 21.441 33.9874 21.4508C34.0217 21.4695 34.056 21.4882 34.0893 21.5079C34.1095 21.5197 34.1291 21.532 34.1488 21.5438C34.1791 21.5625 34.2098 21.5812 34.2396 21.6009C34.2598 21.6142 34.2799 21.6279 34.3001 21.6412C34.3289 21.6609 34.3571 21.6801 34.3849 21.7003C34.405 21.7146 34.4252 21.7293 34.4449 21.7441C34.4721 21.7647 34.4994 21.7854 34.5261 21.8066L34.5836 21.8523C34.6103 21.8745 34.6366 21.8966 34.6628 21.9193C34.681 21.935 34.6991 21.9508 34.7168 21.9665C34.7435 21.9906 34.7697 22.0152 34.7955 22.0398C34.8116 22.0551 34.8282 22.0703 34.8444 22.0861C34.8731 22.1146 34.9009 22.1437 34.9286 22.1727C34.9412 22.1855 34.9538 22.1978 34.966 22.2111C35.0053 22.2534 35.0441 22.2967 35.0815 22.341C35.0865 22.3469 35.091 22.3528 35.0956 22.3587C35.1279 22.3976 35.1596 22.4364 35.1909 22.4768C35.203 22.4925 35.2146 22.5088 35.2262 22.525C35.2494 22.5555 35.2721 22.586 35.2938 22.617C35.3069 22.6357 35.3195 22.6549 35.3327 22.6741C35.3523 22.7037 35.3715 22.7327 35.3907 22.7622C35.4033 22.7829 35.4159 22.8035 35.4285 22.8242C35.4462 22.8533 35.4638 22.8828 35.4805 22.9123C35.4926 22.934 35.5047 22.9556 35.5163 22.9773C35.5324 23.0068 35.5486 23.0373 35.5637 23.0673C35.5753 23.0895 35.5859 23.1111 35.597 23.1333C35.6121 23.1647 35.6262 23.1957 35.6404 23.2277C35.6504 23.2494 35.6605 23.271 35.6696 23.2932C35.6842 23.3266 35.6974 23.3606 35.7105 23.3946C35.719 23.4152 35.7271 23.4359 35.7352 23.4566C35.7493 23.4954 35.7629 23.5348 35.776 23.5742C35.7816 23.5909 35.7876 23.6071 35.7927 23.6234C35.8103 23.6795 35.827 23.7361 35.8421 23.7936C35.8451 23.8035 35.8472 23.8133 35.8497 23.8232C35.8618 23.8709 35.8734 23.9186 35.8835 23.9669C35.888 23.9875 35.8916 24.0082 35.8956 24.0289C35.9016 24.0594 35.9082 24.0894 35.9132 24.1204H38.5059C38.6346 24.1204 38.739 24.0185 38.739 23.893V21.3155H37.7554V20.0852H38.739V18.5046C38.739 17.7596 38.281 17.0997 37.5723 16.8232L35.2126 15.9025H26.2799V24.1204ZM26.2799 14.6722H34.3798L32.1069 9.47526C31.8532 8.89557 31.2721 8.52109 30.626 8.52109H26.2799V14.6722ZM10.3153 27.2698C11.7478 27.2698 12.913 26.133 12.913 24.7355C12.913 23.338 11.7478 22.2012 10.3153 22.2012C10.2704 22.2012 10.226 22.2022 10.1816 22.2047C8.98815 22.2637 8.00454 23.1131 7.77049 24.2252C7.76192 24.2665 7.75385 24.3084 7.74729 24.3502C7.73418 24.4338 7.7256 24.519 7.72106 24.6051C7.71854 24.6484 7.71753 24.6917 7.71753 24.7355C7.71753 26.133 8.88272 27.2698 10.3153 27.2698ZM1.26103 20.0852H2.24464V21.3155H1.26103V24.0549C1.26103 24.0909 1.2913 24.1204 1.32812 24.1204H6.50795C6.51299 24.0899 6.51955 24.0599 6.5256 24.0298C6.52963 24.0087 6.53316 23.9875 6.5377 23.9664C6.54779 23.9191 6.55889 23.8724 6.571 23.8261C6.57402 23.8153 6.57604 23.804 6.57907 23.7931C6.5942 23.7361 6.61084 23.68 6.6285 23.6239C6.63404 23.6066 6.6401 23.5894 6.64565 23.5727C6.65876 23.5338 6.67188 23.4949 6.686 23.457C6.69407 23.4354 6.70265 23.4147 6.71072 23.3936C6.72383 23.3601 6.73745 23.3266 6.75107 23.2937C6.76066 23.271 6.77074 23.2489 6.78083 23.2268C6.79496 23.1957 6.80908 23.1647 6.82421 23.1337C6.8348 23.1111 6.84641 23.089 6.8575 23.0668C6.87263 23.0368 6.88827 23.0073 6.90442 22.9773C6.91652 22.9556 6.92862 22.934 6.94073 22.9123C6.95788 22.8828 6.97503 22.8537 6.99269 22.8247C7.00529 22.8036 7.01791 22.7829 7.03102 22.7622C7.04969 22.7327 7.06886 22.7037 7.08853 22.6751C7.10114 22.6554 7.11425 22.6357 7.12737 22.617C7.14906 22.586 7.17175 22.556 7.19395 22.526C7.20605 22.5093 7.21816 22.4925 7.23077 22.4763C7.26103 22.4374 7.29181 22.3991 7.32358 22.3612C7.32913 22.3543 7.33418 22.3474 7.33972 22.341C7.37756 22.2967 7.41589 22.2534 7.45523 22.2111C7.46784 22.1978 7.48045 22.185 7.49306 22.1717C7.52081 22.1427 7.54855 22.1141 7.5768 22.0861C7.59294 22.0703 7.60958 22.0551 7.62623 22.0393C7.65195 22.0147 7.67768 21.9906 7.70441 21.9665C7.72207 21.9508 7.74073 21.935 7.75889 21.9188C7.78461 21.8966 7.81084 21.8745 7.83758 21.8528C7.85675 21.8371 7.87592 21.8213 7.89559 21.8061C7.92182 21.7854 7.94905 21.7647 7.97629 21.7441C7.99596 21.7293 8.01614 21.7146 8.03632 21.7003C8.06406 21.6801 8.09231 21.6609 8.12055 21.6417C8.14124 21.6279 8.16141 21.6142 8.18159 21.6009C8.21135 21.5812 8.24161 21.5625 8.27188 21.5443C8.29206 21.532 8.31173 21.5197 8.3319 21.5079C8.36519 21.4882 8.39899 21.4695 8.43329 21.4508C8.45095 21.441 8.4681 21.4311 8.48625 21.4218C8.53417 21.3962 8.5826 21.3721 8.63203 21.3489C8.63607 21.347 8.6401 21.3445 8.64464 21.3425C8.69811 21.3174 8.75258 21.2933 8.80706 21.2707C8.82471 21.2633 8.84287 21.2569 8.86053 21.2495C8.89836 21.2348 8.93569 21.22 8.97402 21.2057C8.99571 21.1979 9.0179 21.191 9.0401 21.1831C9.0744 21.1713 9.10921 21.1595 9.14451 21.1486C9.16822 21.1413 9.19243 21.1344 9.21614 21.1275C9.25044 21.1176 9.28474 21.1078 9.31904 21.0989C9.34376 21.0925 9.36847 21.0862 9.39369 21.0802C9.42799 21.0719 9.4623 21.0645 9.4971 21.0571C9.52232 21.0517 9.54754 21.0463 9.57327 21.0414C9.60857 21.035 9.64388 21.0286 9.6797 21.0232C9.70492 21.0187 9.72964 21.0148 9.75536 21.0114C9.79218 21.0059 9.82951 21.0015 9.86734 20.9971C9.89105 20.9946 9.91526 20.9912 9.93947 20.9892C9.98083 20.9853 10.0227 20.9823 10.0646 20.9799C10.0852 20.9784 10.1054 20.9764 10.1261 20.9759C10.1892 20.9725 10.2517 20.971 10.3153 20.971C10.3788 20.971 10.4414 20.9725 10.5044 20.9759C10.5251 20.9764 10.5453 20.9784 10.566 20.9799C10.6078 20.9823 10.6497 20.9853 10.691 20.9892C10.7153 20.9912 10.7395 20.9946 10.7632 20.9971C10.801 21.0015 10.8383 21.0059 10.8752 21.0114C10.9009 21.0148 10.9256 21.0187 10.9508 21.0232C10.9866 21.0286 11.0219 21.035 11.0573 21.0414C11.083 21.0463 11.1082 21.0517 11.1334 21.0571C11.1682 21.0645 11.2025 21.0719 11.2368 21.0802C11.262 21.0862 11.2868 21.0925 11.3115 21.0989C11.3458 21.1078 11.3801 21.1176 11.4144 21.1275C11.4381 21.1344 11.4623 21.1413 11.486 21.1486C11.5213 21.1595 11.5561 21.1713 11.5904 21.1831C11.6126 21.191 11.6348 21.1979 11.6565 21.2057C11.6948 21.22 11.7322 21.2348 11.77 21.2495C11.7876 21.2569 11.8058 21.2633 11.8235 21.2707C11.8779 21.2933 11.9324 21.3174 11.9859 21.3425C11.9904 21.3445 11.9945 21.3465 11.9985 21.3489C12.0479 21.3721 12.0963 21.3962 12.1443 21.4218C12.1624 21.4311 12.1796 21.441 12.1972 21.4508C12.231 21.4695 12.2653 21.4882 12.2986 21.5079C12.3188 21.5197 12.3385 21.532 12.3586 21.5443C12.3889 21.5625 12.4192 21.5812 12.4489 21.6009C12.4691 21.6142 12.4893 21.6279 12.51 21.6417C12.5382 21.6609 12.5665 21.6801 12.5942 21.7003C12.6144 21.7146 12.6346 21.7293 12.6542 21.7441C12.6815 21.7647 12.7087 21.7854 12.7349 21.8061C12.7546 21.8213 12.7738 21.8371 12.7929 21.8528C12.8197 21.8745 12.8459 21.8966 12.8716 21.9193C12.8898 21.935 12.9084 21.9508 12.9261 21.9665C12.9528 21.9906 12.9786 22.0152 13.0048 22.0398C13.0209 22.0551 13.0376 22.0703 13.0537 22.0861C13.082 22.1141 13.1102 22.1432 13.138 22.1722C13.1501 22.185 13.1632 22.1978 13.1753 22.2111C13.2146 22.2534 13.253 22.2967 13.2908 22.341C13.2958 22.3474 13.3009 22.3538 13.3059 22.3597C13.3377 22.3981 13.3695 22.4369 13.3997 22.4768C13.4124 22.4925 13.424 22.5088 13.4361 22.525C13.4588 22.5555 13.4815 22.586 13.5032 22.617C13.5163 22.6357 13.5289 22.6554 13.542 22.6746C13.5617 22.7037 13.5808 22.7327 13.5995 22.7622C13.6126 22.7829 13.6252 22.8035 13.6378 22.8242C13.6555 22.8533 13.6731 22.8828 13.6898 22.9123C13.7019 22.934 13.714 22.9556 13.7256 22.9773C13.7422 23.0068 13.7579 23.0373 13.7735 23.0673C13.7846 23.0895 13.7952 23.1111 13.8063 23.1333C13.8214 23.1647 13.8356 23.1962 13.8497 23.2277C13.8598 23.2494 13.8699 23.271 13.8789 23.2932C13.8936 23.3266 13.9067 23.3606 13.9203 23.3946C13.9284 23.4152 13.9364 23.4359 13.9445 23.4566C13.9591 23.4959 13.9723 23.5353 13.9854 23.5751C13.9909 23.5914 13.997 23.6071 14.002 23.6234C14.0197 23.6795 14.0363 23.7366 14.052 23.7936C14.054 23.8025 14.056 23.8118 14.058 23.8207C14.0706 23.8694 14.0822 23.9181 14.0928 23.9673C14.0974 23.987 14.1009 24.0072 14.1044 24.0274C14.1105 24.0584 14.117 24.0889 14.1226 24.1204H25.0189V5.83919C25.0189 5.49965 25.3014 5.22408 25.6494 5.22408H34.7657C34.7813 5.22408 34.8293 5.22408 34.859 5.16946C34.8888 5.11533 34.8625 5.07645 34.8535 5.06415L32.8807 2.17656C32.6895 1.89705 32.3702 1.73023 32.0257 1.73023H15.5612C15.4694 1.73023 15.3831 1.76517 15.318 1.82865L14.2749 2.84629C13.9718 3.14204 13.5687 3.30492 13.14 3.30492H2.28197C1.71904 3.30492 1.26103 3.75174 1.26103 4.30091V20.0852Z" fill="#101828"/>
<path d="M17.6013 6.7981H21.5897C22.3953 6.7981 23.051 7.43732 23.051 8.22368V21.3886C23.051 21.7281 22.7686 22.0037 22.4205 22.0037H16.7711C16.423 22.0037 16.1406 21.7281 16.1406 21.3886V8.22368C16.1401 7.43732 16.7953 6.7981 17.6013 6.7981ZM17.4011 20.7735H21.7895V13.5397H17.4011V20.7735ZM17.4011 12.3095H21.7895V8.22368C21.7895 8.11592 21.6997 8.02832 21.5892 8.02832H17.6008C17.4904 8.02832 17.4006 8.11592 17.4006 8.22368V12.3095H17.4011ZM4.84371 6.7981H12.5562C13.4475 6.7981 14.1728 7.50572 14.1728 8.37525V11.9631C14.1728 12.8326 13.4475 13.5402 12.5562 13.5402H4.8432C3.9519 13.5402 3.22656 12.8326 3.22656 11.9631V8.37525C3.22706 7.50572 3.95241 6.7981 4.84371 6.7981ZM4.4881 11.9626C4.4881 12.1535 4.64749 12.3095 4.84371 12.3095H12.5562C12.7524 12.3095 12.9118 12.154 12.9118 11.9626V8.37476C12.9118 8.18382 12.7524 8.02783 12.5562 8.02783H4.8432C4.64699 8.02783 4.48759 8.18333 4.48759 8.37476V11.9626H4.4881Z" fill="#101828"/>
</svg>
