<svg width="60" height="60" viewBox="0 0 60 60" fill="none" xmlns="http://www.w3.org/2000/svg">
<path d="M20.3773 11.5784C17.4594 11.5784 15.6517 12.4809 14.1674 14.0494C13.1854 15.0869 11.1476 17.2915 10.2299 18.3869C9.72448 18.9902 9.29613 19.8941 9.67095 20.5328C9.98592 21.0701 10.3201 21.7107 11.3698 21.7107C12.3736 21.7107 18.0604 21.694 18.6906 21.694C18.6895 21.708 18.6896 21.7145 18.6896 21.7145C18.6915 22.3698 18.6948 23.3941 18.6991 24.6541H18.6896C18.6893 24.5263 18.6639 24.3999 18.6146 24.282C18.5654 24.1641 18.4934 24.0571 18.4028 23.9671C18.3122 23.877 18.2047 23.8058 18.0864 23.7573C17.9682 23.7089 17.8416 23.6843 17.7139 23.6848C14.6697 23.698 10.0985 23.76 7.73613 23.76C7.51836 23.7548 7.30208 23.7974 7.10253 23.8848C6.8536 24.0146 6.64034 24.2035 6.48143 24.435C5.04649 26.3748 2.69983 29.8578 1.41028 32.0454C1.07411 32.5626 0.882349 33.1604 0.854874 33.7766C0.846537 35.888 0.816358 37.4934 0.79785 40.1478C0.750391 40.1406 0.701937 40.1438 0.655799 40.157C0.609661 40.1703 0.566926 40.1933 0.530516 40.2246C0.494106 40.2559 0.464878 40.2947 0.44483 40.3383C0.424782 40.3819 0.414387 40.4293 0.414354 40.4773C0.413353 41.0584 0.407517 42.0495 0.402849 42.8958C0.401971 43.071 0.43561 43.2447 0.501845 43.4069C0.56808 43.569 0.665614 43.7166 0.788877 43.8411C0.91214 43.9656 1.05872 44.0645 1.22024 44.1324C1.38176 44.2002 1.55506 44.2356 1.73025 44.2364C3.10566 44.2427 6.78339 44.2531 6.99732 44.2531L15.3767 44.2826C17.0481 44.2826 34.7506 44.2676 36.6944 44.2689L44.8848 44.2826C46.247 44.2826 53.5051 44.2784 56.3563 44.2826C56.5317 44.2829 56.7053 44.2485 56.8674 44.1815C57.0294 44.1144 57.1766 44.0161 57.3006 43.892C57.4245 43.768 57.5227 43.6207 57.5896 43.4585C57.6564 43.2964 57.6906 43.1227 57.6902 42.9474C57.6884 42.022 57.6902 39.8857 57.6902 39.8857C57.6902 33.5689 57.6558 18.48 57.6532 12.3534C57.6533 12.266 57.6361 12.1794 57.6027 12.0987C57.5693 12.0179 57.5204 11.9445 57.4586 11.8827C57.3968 11.8209 57.3235 11.7719 57.2427 11.7385C57.162 11.7051 57.0755 11.6879 56.9881 11.6879C49.6243 11.6822 24.9638 11.5784 20.4354 11.5784" fill="#F2F4F7"/>
<path d="M18.6896 24.6537C18.6893 24.5259 18.6638 24.3995 18.6146 24.2816C18.5654 24.1637 18.4934 24.0567 18.4028 23.9667C18.3121 23.8766 18.2046 23.8054 18.0864 23.7569C17.9682 23.7085 17.8416 23.6839 17.7139 23.6845C15.9348 23.6923 13.6341 23.7166 11.5576 23.7355C11.2394 23.0403 10.9576 22.3291 10.7134 21.6047C10.9242 21.6784 11.1465 21.7142 11.3698 21.7104C12.3736 21.7104 18.061 21.6938 18.6906 21.6938C18.6894 21.7104 18.6896 21.7143 18.6896 21.7143C18.6921 22.6348 18.6978 22.6814 18.7048 24.689" fill="#E44848"/>
<path d="M54.7354 25.2466C53.5389 25.2489 52.3424 25.2522 51.146 25.2564L49.106 25.2621L48.2648 25.2641C47.985 25.2641 47.6741 25.2266 47.4276 25.3836C46.9653 25.6784 47.0928 26.3901 47.0915 26.8648C47.09 27.411 47.0884 27.9573 47.0865 28.5036C47.0821 29.851 47.0776 31.1984 47.0728 32.5459C47.0686 33.759 47.0646 34.9723 47.061 36.1857C47.061 36.4035 47.0604 36.6213 47.0593 36.8392C47.0593 37.1366 47.036 37.4394 47.2566 37.6755C47.4957 37.9313 47.8166 37.909 48.1348 37.908L48.9086 37.9053C50.3025 37.9003 51.6964 37.8953 53.0902 37.8905C53.6603 37.8888 54.2509 37.9315 54.8188 37.882C54.9311 37.8732 55.04 37.8389 55.1371 37.7818C55.2341 37.7246 55.3169 37.646 55.379 37.552C55.5141 37.3402 55.4977 37.1043 55.4976 36.864C55.4976 36.3869 55.4971 35.91 55.4962 35.4332C55.4916 32.3136 55.4752 29.1939 55.469 26.0741C55.468 25.6162 55.2056 25.2834 54.7354 25.2466C54.6296 25.2475 54.5283 25.29 54.4534 25.3648C54.3786 25.4397 54.3361 25.5409 54.3352 25.6468C54.3373 25.7522 54.3801 25.8528 54.4547 25.9274C54.5293 26.0021 54.6299 26.0449 54.7354 26.0469C54.7185 26.0422 54.7023 26.0355 54.6869 26.0271C54.6239 25.9536 54.6854 25.9699 54.6685 25.9937C54.6517 26.0176 54.6685 26.1105 54.6685 26.1401C54.6685 26.2492 54.6685 26.3581 54.6685 26.4669C54.6692 26.7264 54.67 26.9858 54.6709 27.2451L54.6779 29.2206C54.6837 30.8967 54.6886 32.5727 54.6927 34.2487C54.6945 35.1325 54.6957 36.0162 54.6962 36.8999V37.0808C54.688 37.1689 54.6936 37.1767 54.7129 37.1041C54.7728 37.0799 54.7702 37.099 54.7271 37.0858C54.6043 37.0702 54.4801 37.0702 54.3574 37.0858L53.5264 37.0878C52.2058 37.0917 50.8853 37.0963 49.5647 37.1016L47.9982 37.1071C47.9293 37.1005 47.8598 37.0999 47.7908 37.1053C47.8408 37.0286 47.8273 37.2582 47.8575 37.1365C47.8626 37.0866 47.8626 37.0363 47.8575 36.9864C47.8575 36.793 47.8579 36.5995 47.8588 36.406C47.8616 35.3055 47.865 34.2051 47.8691 33.1046C47.8769 30.8258 47.8843 28.5471 47.8913 26.2684C47.9048 26.1865 47.9048 26.1031 47.8913 26.0212C47.8722 25.9846 47.8965 26.0066 47.8725 26.0468C47.8361 26.1076 47.8023 26.0468 47.853 26.0634C47.8839 26.067 47.9152 26.067 47.9462 26.0634C48.1731 26.0634 48.3999 26.0629 48.6268 26.0619L50.4232 26.0571C51.6571 26.0535 52.891 26.05 54.1248 26.0466L54.7327 26.0453C55.2503 26.0459 55.2513 25.2456 54.7354 25.2466Z" fill="#475467"/>
<path d="M16.2701 26.2829C16.2693 26.1168 16.2028 25.9578 16.085 25.8407C15.9673 25.7236 15.8079 25.6579 15.6419 25.658C13.7827 25.656 11.0654 25.6468 9.42822 25.6468C9.19939 25.637 8.97102 25.6748 8.7576 25.758C8.51905 25.8949 8.31824 26.0889 8.17319 26.3226C7.19944 27.6345 5.59709 30.0408 4.30088 32.085C4.19742 32.2481 4.14481 32.4383 4.14973 32.6314C4.15465 32.8245 4.21687 33.0118 4.32848 33.1694C4.4401 33.3271 4.59607 33.4479 4.77657 33.5167C4.95707 33.5855 5.15394 33.599 5.34215 33.5556C8.70825 32.781 13.0721 31.7981 15.8228 31.1338C15.9566 31.1014 16.0755 31.0248 16.1604 30.9163C16.2452 30.8079 16.291 30.674 16.2903 30.5364C16.2841 29.2265 16.275 27.2771 16.2701 26.2829Z" fill="#475467"/>
<path d="M58.0696 18.4114C58.2753 18.4542 58.4721 18.5319 58.6515 18.6412C58.783 18.7374 58.7929 18.953 58.7947 19.1232C58.7961 19.2334 58.7947 19.3437 58.7947 19.4537C58.7947 19.8439 58.7951 20.234 58.7959 20.6242C58.7971 21.9076 58.7985 23.191 58.8001 24.4742C58.8019 26.1239 58.8038 27.7735 58.8057 29.4229C58.8074 31.0486 58.809 32.6744 58.8106 34.3002C58.8118 35.5167 58.8126 36.7332 58.8131 37.9497V38.2564C58.8131 38.7714 59.6134 38.7722 59.6134 38.2564C59.6134 37.0884 59.6127 35.9204 59.6114 34.7522C59.61 33.1258 59.6083 31.4995 59.6066 29.8731C59.6046 28.1794 59.6026 26.4858 59.6007 24.7923L59.5962 20.7714C59.5962 20.3549 59.5959 19.9385 59.5952 19.5221C59.5952 18.9025 59.5931 18.2562 58.9818 17.9047C58.7585 17.7914 58.5238 17.7023 58.2815 17.6391C57.7895 17.483 57.5789 18.256 58.0687 18.4109L58.0696 18.4114Z" fill="#475467"/>
<path d="M58.1521 21.8117C58.6347 21.8117 59.1172 21.8082 59.5996 21.8082C59.6521 21.8082 59.7042 21.7978 59.7527 21.7777C59.8013 21.7576 59.8454 21.7281 59.8825 21.6909C59.9197 21.6538 59.9492 21.6097 59.9693 21.5611C59.9894 21.5126 59.9997 21.4605 59.9997 21.408C59.9997 21.3554 59.9894 21.3034 59.9693 21.2548C59.9492 21.2063 59.9197 21.1622 59.8825 21.125C59.8454 21.0879 59.8013 21.0584 59.7527 21.0383C59.7042 21.0182 59.6521 21.0078 59.5996 21.0078C59.1172 21.0078 58.6347 21.0113 58.1521 21.0113C58.046 21.0113 57.9442 21.0535 57.8692 21.1285C57.7941 21.2036 57.752 21.3054 57.752 21.4115C57.752 21.5176 57.7941 21.6194 57.8692 21.6944C57.9442 21.7695 58.046 21.8117 58.1521 21.8117Z" fill="#475467"/>
<path d="M58.1521 24.0472C58.6347 24.0472 59.1172 24.0437 59.5996 24.0437C59.7057 24.0437 59.8075 24.0016 59.8825 23.9265C59.9576 23.8515 59.9997 23.7497 59.9997 23.6436C59.9997 23.5374 59.9576 23.4357 59.8825 23.3606C59.8075 23.2856 59.7057 23.2434 59.5996 23.2434C59.1172 23.2434 58.6347 23.2469 58.1521 23.2469C58.046 23.2469 57.9442 23.2891 57.8692 23.3641C57.7941 23.4392 57.752 23.5409 57.752 23.6471C57.752 23.7532 57.7941 23.855 57.8692 23.93C57.9442 24.0051 58.046 24.0472 58.1521 24.0472Z" fill="#475467"/>
<path d="M46.7002 28.7468C46.7002 28.9286 46.7037 29.1103 46.7037 29.2922C46.7049 29.3982 46.7467 29.4996 46.8204 29.5757C46.8982 29.6468 46.9986 29.6882 47.1039 29.6924C47.21 29.6922 47.3118 29.6503 47.3873 29.5757C47.4609 29.4996 47.5027 29.3982 47.504 29.2922C47.504 29.1103 47.5007 28.9286 47.5005 28.7468C47.4995 28.6409 47.4577 28.5394 47.3838 28.4634C47.3062 28.392 47.2057 28.3506 47.1004 28.3467C46.9942 28.3468 46.8924 28.3888 46.8169 28.4634C46.7433 28.5396 46.7016 28.6409 46.7002 28.7468Z" fill="#475467"/>
<path d="M46.7002 33.9712C46.7002 34.153 46.7037 34.3349 46.7037 34.5166C46.7048 34.6226 46.7466 34.724 46.8204 34.8001C46.8982 34.8712 46.9986 34.9125 47.1039 34.9168C47.21 34.9166 47.3118 34.8747 47.3873 34.8001C47.461 34.7239 47.5027 34.6225 47.504 34.5166C47.504 34.3349 47.5007 34.153 47.5005 33.9712C47.4995 33.8652 47.4577 33.7637 47.3838 33.6878C47.3061 33.6166 47.2057 33.5752 47.1004 33.571C46.9942 33.5713 46.8924 33.6132 46.8169 33.6878C46.7433 33.7639 46.7016 33.8653 46.7002 33.9712Z" fill="#475467"/>
<path d="M10.8914 39.393C10.2732 39.3807 9.65889 39.4929 9.08501 39.7229C8.51112 39.953 7.98938 40.2961 7.55085 40.732C7.11232 41.1678 6.76597 41.6874 6.53241 42.2599C6.29885 42.8323 6.18286 43.4459 6.19135 44.0642C6.19135 46.9799 8.00879 48.8228 10.8915 48.8228C13.8408 48.8228 15.5917 46.9799 15.5917 44.0642C15.5917 41.5282 13.6607 39.393 10.8914 39.393Z" fill="#475467"/>
<path d="M10.8917 42.5433C10.6865 42.5392 10.4826 42.5765 10.2921 42.6528C10.1017 42.7292 9.9285 42.8431 9.78299 42.9878C9.63747 43.1325 9.52256 43.305 9.44511 43.495C9.36766 43.6851 9.32926 43.8888 9.33219 44.094C9.33219 45.061 9.93544 45.673 10.8917 45.673C11.8703 45.673 12.4513 45.0615 12.4513 44.094C12.4545 43.8887 12.4162 43.6849 12.3388 43.4948C12.2614 43.3047 12.1465 43.1321 12.0009 42.9873C11.8553 42.8426 11.6821 42.7287 11.4915 42.6524C11.3009 42.5761 11.0969 42.539 10.8917 42.5433Z" fill="#E44848"/>
<path d="M40.9548 39.393C40.3367 39.3807 39.7224 39.4929 39.1485 39.7229C38.5746 39.953 38.0529 40.2961 37.6143 40.732C37.1758 41.1678 36.8294 41.6874 36.5959 42.2599C36.3623 42.8323 36.2463 43.4459 36.2548 44.0642C36.2548 46.9799 38.0723 48.8228 40.955 48.8228C43.9042 48.8228 45.6552 46.9799 45.6552 44.0642C45.6552 41.5282 43.7242 39.393 40.9548 39.393Z" fill="#475467"/>
<path d="M40.9549 42.5433C40.7497 42.5392 40.5458 42.5765 40.3554 42.6528C40.1649 42.7292 39.9917 42.8431 39.8462 42.9878C39.7007 43.1325 39.5858 43.305 39.5083 43.495C39.4309 43.6851 39.3925 43.8888 39.3954 44.094C39.3954 45.061 39.9985 45.673 40.9549 45.673C41.9335 45.673 42.5146 45.0615 42.5146 44.094C42.5177 43.8887 42.4794 43.6849 42.402 43.4948C42.3246 43.3047 42.2097 43.1321 42.0641 42.9873C41.9186 42.8426 41.7453 42.7287 41.5547 42.6524C41.3641 42.5761 41.1602 42.539 40.9549 42.5433Z" fill="#E44848"/>
<path d="M20.3774 11.1781C19.2634 11.1599 18.1538 11.3238 17.0926 11.6633C16.1874 11.9754 15.3481 12.4532 14.6176 13.0723C13.9431 13.6392 13.3611 14.3208 12.7633 14.9664C12.0665 15.7189 11.3736 16.4755 10.6934 17.2432C10.0321 17.9898 9.25282 18.7652 9.13993 19.8068C9.08541 20.3097 9.29783 20.732 9.57062 21.1364C9.8158 21.5272 10.1815 21.8276 10.6124 21.9924C11.157 22.19 11.8326 22.1103 12.4058 22.1091C13.1458 22.1075 13.8859 22.1058 14.6261 22.1038C15.9331 22.1004 17.2402 22.0972 18.5473 22.0941H18.707C19.2221 22.0941 19.2229 21.2938 18.707 21.2938C16.3205 21.2938 13.9341 21.3079 11.5476 21.3104C11.2379 21.3377 10.9269 21.2754 10.6516 21.131C10.3765 20.9603 10.2139 20.6727 10.0381 20.3669C9.81872 19.9849 9.97729 19.5348 10.1744 19.1747C10.3954 18.8095 10.6557 18.4694 10.9504 18.1606C11.585 17.4334 12.2354 16.72 12.8889 16.0097C13.4658 15.3824 14.0353 14.7425 14.6383 14.1399C15.3063 13.4542 16.1081 12.9131 16.9938 12.5499C18.0764 12.1497 19.2245 11.9559 20.3785 11.9786C20.8934 11.9773 20.8944 11.177 20.3785 11.1783L20.3774 11.1781Z" fill="#475467"/>
<path d="M1.1983 40.0596C1.21314 37.9876 1.23799 35.9157 1.25449 33.8438C1.26216 32.8756 1.85475 32.0672 2.34529 31.2747C2.86434 30.4371 3.40024 29.6099 3.94464 28.7885C4.48903 27.9672 5.0451 27.1477 5.61018 26.3375C5.86329 25.9747 6.11895 25.6134 6.37717 25.2537C6.60293 24.94 6.82103 24.5489 7.14066 24.3226C7.47414 24.0864 7.94634 24.1596 8.33383 24.1584C8.7519 24.1569 9.16991 24.1547 9.58787 24.1515C10.5595 24.1447 11.5311 24.1363 12.5026 24.1265C13.6432 24.1154 14.7839 24.1051 15.9246 24.0955C16.4464 24.0915 16.9683 24.0881 17.4901 24.0854C17.7006 24.0842 17.9036 24.0687 18.0786 24.2087C18.1439 24.2631 18.1966 24.331 18.233 24.4078C18.2695 24.4845 18.2887 24.5683 18.2896 24.6533C18.3062 25.167 19.1066 25.1701 19.0899 24.6533C19.0869 24.3929 19.0108 24.1386 18.8703 23.9193C18.7298 23.7001 18.5304 23.5248 18.2951 23.4134C17.8529 23.2133 17.322 23.2855 16.8488 23.2887C15.7993 23.2954 14.7499 23.3041 13.7004 23.3149C11.771 23.3329 9.84148 23.3567 7.91182 23.3589C7.33391 23.3589 6.82669 23.4786 6.41002 23.9016C6.09777 24.2544 5.81315 24.6308 5.55866 25.0273C4.98575 25.8276 4.4244 26.6367 3.87461 27.4546C3.28236 28.3319 2.70144 29.2166 2.13187 30.1089C1.88065 30.5051 1.63288 30.9033 1.38855 31.3034C1.09979 31.743 0.854477 32.2096 0.656073 32.6967C0.433478 33.3008 0.454487 33.9225 0.450152 34.5558C0.446484 35.113 0.441537 35.6703 0.435312 36.2277C0.421806 37.5051 0.407134 38.7823 0.397963 40.0596C0.394128 40.5747 1.19447 40.5752 1.1983 40.0596Z" fill="#475467"/>
<path d="M18.2896 21.7142C18.2926 22.8379 18.2962 23.9615 18.3006 25.0849C18.3063 26.7627 18.3122 28.4404 18.3182 30.1182C18.3249 31.9674 18.3313 33.8165 18.3376 35.6656C18.3432 37.3262 18.3485 38.9868 18.3534 40.6474C18.3567 41.753 18.3593 42.8586 18.3611 43.9643V44.2101C18.3611 44.7251 19.1614 44.726 19.1614 44.2101C19.1614 43.201 19.1594 42.1918 19.1553 41.1826C19.1507 39.5639 19.1456 37.9453 19.1401 36.3267C19.134 34.4815 19.1276 32.6357 19.1211 30.7894C19.1148 29.0769 19.1088 27.3643 19.1029 25.6517C19.0986 24.4386 19.0945 23.2256 19.0907 22.0126C19.0907 21.9133 19.0904 21.8138 19.0899 21.7142C19.0884 21.1993 18.2881 21.1983 18.2896 21.7142Z" fill="#475467"/>
<path d="M16.6704 26.2829C16.6671 26.1226 16.6274 25.9651 16.5542 25.8224C16.481 25.6797 16.3762 25.5556 16.2478 25.4594C16.0087 25.3034 15.7239 25.2323 15.4395 25.2577C14.8535 25.2569 14.2674 25.2558 13.6814 25.2543C12.4888 25.252 11.2965 25.2496 10.1044 25.2472C9.54399 25.2472 8.87987 25.1638 8.398 25.5076C7.96949 25.8132 7.6772 26.3213 7.3754 26.7456C6.66877 27.7394 5.98981 28.753 5.31986 29.7718C4.95593 30.3254 4.59544 30.8815 4.2384 31.44C3.92827 31.9252 3.6198 32.3979 3.80488 32.9971C3.88409 33.2552 4.03657 33.4846 4.24378 33.6576C4.451 33.8305 4.70401 33.9396 4.97205 33.9714C5.26245 33.9816 5.55247 33.9421 5.82958 33.8547C6.1237 33.7871 6.41772 33.7197 6.71162 33.6524C9.18117 33.0868 11.6522 32.5276 14.1189 31.9499C14.6359 31.8288 15.1528 31.7065 15.6696 31.583C15.953 31.515 16.2258 31.4478 16.4281 31.2205C16.6195 30.9901 16.714 30.6943 16.6915 30.3955C16.6859 29.2448 16.6803 28.0943 16.6749 26.9441C16.6739 26.7242 16.6728 26.5043 16.6717 26.2843C16.6693 25.7694 15.869 25.7684 15.8713 26.2843C15.876 27.2724 15.8807 28.2605 15.8855 29.2487C15.8869 29.5132 15.8881 29.7776 15.8894 30.042C15.8894 30.2113 15.9494 30.5052 15.8618 30.6491C15.777 30.7887 15.5242 30.7959 15.3768 30.8312C15.1449 30.8868 14.9129 30.942 14.6808 30.9969C12.4664 31.5208 10.2473 32.0249 8.02801 32.5309C7.46299 32.66 6.89798 32.7892 6.33296 32.9186L5.52095 33.1048C5.33301 33.1755 5.12894 33.1918 4.9322 33.1517C4.78812 33.0995 4.67049 32.9925 4.60491 32.854C4.53933 32.7155 4.53111 32.5567 4.58205 32.4122C4.69454 32.1799 4.82969 31.9593 4.98555 31.7536C5.14718 31.5009 5.30958 31.2488 5.47276 30.9973C6.11136 30.0125 6.76197 29.0356 7.42459 28.0664C7.70221 27.6625 7.98282 27.2605 8.26995 26.8634C8.39467 26.6906 8.51538 26.5107 8.65561 26.3501C8.72764 26.2582 8.81929 26.1836 8.92386 26.1317C9.02844 26.0798 9.14329 26.0519 9.26003 26.05C9.73824 26.023 10.2239 26.046 10.7028 26.0468C11.2516 26.0476 11.8003 26.0487 12.349 26.0502L14.0497 26.054C14.5691 26.055 15.0937 26.0343 15.6126 26.0567C15.6444 26.0537 15.6764 26.0572 15.7068 26.067C15.7372 26.0768 15.7653 26.0927 15.7893 26.1138C15.8133 26.1348 15.8328 26.1605 15.8465 26.1894C15.8603 26.2182 15.868 26.2495 15.8692 26.2814C15.8954 26.7957 16.6959 26.7987 16.6704 26.2829Z" fill="#475467"/>
<path d="M57.2857 39.6901C57.2864 40.3097 57.2873 40.9293 57.2886 41.5487L57.2906 42.5924C57.2906 42.8666 57.3163 43.1399 57.1825 43.3895C57.1213 43.5043 57.0368 43.6051 56.9344 43.6855C56.8321 43.7659 56.7142 43.8241 56.5881 43.8564C56.3674 43.893 56.1431 43.9023 55.9202 43.8841C55.4325 43.8841 54.9447 43.8837 54.4569 43.8831C52.0962 43.8821 49.7356 43.8821 47.3752 43.8831C46.5452 43.8831 45.7152 43.8831 44.8851 43.8831C44.3701 43.8831 44.3693 44.6834 44.8851 44.6834C46.8176 44.6834 48.7502 44.6829 50.6829 44.6817C51.9251 44.6817 53.1674 44.6817 54.4097 44.6817C54.907 44.6817 55.4043 44.6821 55.9016 44.6827C56.1654 44.695 56.4297 44.6838 56.6915 44.6494C57.0484 44.582 57.3744 44.4021 57.6219 44.1362C58.2 43.5089 58.0909 42.6762 58.0896 41.8889C58.0882 41.1552 58.0871 40.4219 58.0861 39.6888C58.0861 39.1739 57.2857 39.1729 57.2857 39.6888V39.6901Z" fill="#475467"/>
<path d="M17.7428 16.5734L24.1105 16.5766L32.4537 16.5811L41.1789 16.5859C43.709 16.5875 46.239 16.5888 48.7689 16.59C50.4073 16.5908 52.0457 16.5915 53.684 16.5918H54.0298C54.5447 16.5918 54.5457 15.7914 54.0298 15.7914C52.5372 15.7914 51.0446 15.7909 49.5519 15.7899C47.0959 15.7889 44.6401 15.7877 42.1845 15.7863L33.5141 15.7814L25.0634 15.7768L18.3717 15.7734H17.7429C17.228 15.7734 17.2272 16.5738 17.7429 16.5738L17.7428 16.5734Z" fill="#475467"/>
<path d="M47.4594 40.5454C49.5439 40.5454 51.6286 40.5471 53.7133 40.5505C54.1648 40.5505 54.6161 40.5505 55.0674 40.5505C55.5825 40.5505 55.5833 39.7502 55.0674 39.7502C52.9035 39.7502 50.7395 39.7484 48.5755 39.7449C48.2036 39.7449 47.8315 39.7449 47.4594 39.7449C46.9443 39.7449 46.9435 40.5454 47.4594 40.5454Z" fill="#475467"/>
<path d="M20.4353 11.9783C21.6119 11.9783 22.7886 11.9807 23.9653 11.9853C25.8574 11.9907 27.7496 11.9967 29.6419 12.0033L36.5657 12.0273C38.9899 12.0358 41.4141 12.0442 43.8381 12.0525C46.0787 12.06 48.3193 12.0671 50.5598 12.074C52.3172 12.0794 54.0746 12.0838 55.832 12.0872C56.1586 12.0879 56.4852 12.0884 56.8118 12.0887C56.991 12.0887 57.1924 12.0784 57.2471 12.2925C57.2724 12.4942 57.2749 12.6981 57.2545 12.9004C57.2551 13.8897 57.2561 14.8793 57.2575 15.8691C57.2608 18.393 57.2647 20.917 57.2693 23.441C57.2737 26.1739 57.2782 28.9066 57.2826 31.6393C57.2861 33.96 57.2887 36.2806 57.2906 38.6011C57.2906 39.0295 57.2906 39.458 57.2906 39.8865C57.2906 40.4014 58.091 40.4022 58.091 39.8865C58.091 37.7404 58.089 35.5943 58.0851 33.4483C58.0814 30.7268 58.077 28.0054 58.0721 25.2841C58.0678 22.6427 58.0636 20.0013 58.0595 17.3601C58.0578 16.2643 58.0564 15.1685 58.0553 14.0727C58.0553 13.6156 58.055 13.1586 58.0543 12.7016C58.0543 12.4015 58.0686 12.104 57.9176 11.8319C57.8205 11.6655 57.6812 11.5276 57.5138 11.4322C57.3464 11.3368 57.1568 11.2872 56.9642 11.2885C55.3925 11.2462 53.8142 11.2829 52.2418 11.278C50.0914 11.2726 47.9409 11.2661 45.7906 11.2587C43.3701 11.2507 40.9495 11.2424 38.5288 11.2338L31.3746 11.2088C29.3319 11.2018 27.2891 11.1952 25.2464 11.1888C23.8483 11.1845 22.4503 11.1809 21.0522 11.178C20.8466 11.178 20.6409 11.178 20.4353 11.178C19.9204 11.178 19.9196 11.9783 20.4353 11.9783Z" fill="#475467"/>
<path d="M15.377 44.6836C16.2348 44.6836 17.0927 44.6831 17.9506 44.6821L22.7693 44.6786L28.4164 44.6744L33.4742 44.6711C34.4913 44.6704 35.5084 44.67 36.5255 44.6697H36.6947C37.2098 44.6697 37.2104 43.8694 36.6947 43.8694C35.7943 43.8687 34.894 43.8687 33.9936 43.8694C32.3651 43.8702 30.7366 43.8712 29.1082 43.8726L23.4573 43.8767L18.4578 43.8804C17.4811 43.8811 16.5042 43.8817 15.5274 43.8822H15.3773C14.8623 43.8822 14.8614 44.6826 15.3773 44.6826L15.377 44.6836Z" fill="#475467"/>
<path d="M39.8744 21.6922C35.2429 21.7293 28.654 21.7552 26.5656 21.7589C26.4688 21.7588 26.376 21.7971 26.3075 21.8653C26.239 21.9336 26.2003 22.0263 26.2001 22.123C26.1921 23.5153 26.1511 27.217 26.1472 29.7841C26.1471 29.8323 26.1564 29.8801 26.1748 29.9247C26.1932 29.9692 26.2202 30.0097 26.2543 30.0438C26.2884 30.0779 26.3289 30.1049 26.3735 30.1233C26.4181 30.1417 26.4658 30.1511 26.514 30.1509C28.8129 30.1456 36.8366 30.1009 39.9299 30.0972C39.978 30.0973 40.0255 30.0878 40.0699 30.0695C40.1143 30.0511 40.1547 30.0241 40.1886 29.9901C40.2226 29.9561 40.2495 29.9157 40.2678 29.8713C40.2861 29.8269 40.2955 29.7793 40.2954 29.7312C40.2919 27.1653 40.2542 23.276 40.2439 22.0551C40.2435 22.007 40.2336 21.9595 40.2149 21.9152C40.1961 21.8709 40.1688 21.8307 40.1344 21.797C40.1001 21.7633 40.0595 21.7367 40.0149 21.7187C39.9702 21.7007 39.9225 21.6917 39.8744 21.6922Z" fill="#475467"/>
<path d="M39.8745 21.292C36.3522 21.3201 32.8298 21.3395 29.3073 21.3502C28.6724 21.3525 28.0376 21.3546 27.4029 21.3564L26.6889 21.358C26.2164 21.358 25.8249 21.6158 25.8 22.1225C25.7693 22.7478 25.7903 23.3802 25.785 24.0067C25.7773 24.8871 25.7701 25.7677 25.7632 26.6483C25.7564 27.5566 25.7513 28.4648 25.748 29.3729C25.7293 29.5813 25.739 29.7912 25.7768 29.9969C25.8136 30.1212 25.8809 30.2344 25.9726 30.326C26.0642 30.4177 26.1774 30.485 26.3017 30.5218C26.5349 30.5626 26.7724 30.572 27.008 30.5499C28.2292 30.5459 29.4504 30.5407 30.6716 30.5343C33.572 30.5209 36.4725 30.5091 39.3729 30.4988C39.6641 30.4988 40.0232 30.5488 40.2867 30.409C40.748 30.1641 40.6962 29.6661 40.6948 29.2214C40.6924 28.3453 40.688 27.4694 40.6815 26.5934C40.6715 25.1178 40.6594 23.6422 40.6453 22.1667C40.6412 21.6873 40.3752 21.3249 39.8745 21.2925C39.7684 21.2925 39.6666 21.3347 39.5915 21.4097C39.5165 21.4848 39.4743 21.5865 39.4743 21.6927C39.4743 21.7988 39.5165 21.9006 39.5915 21.9756C39.6666 22.0507 39.7684 22.0928 39.8745 22.0928C39.8507 22.0912 39.8438 22.0548 39.8441 22.0555C39.85 22.1023 39.8504 22.1495 39.8453 22.1964L39.8483 22.5349C39.8508 22.8263 39.8533 23.1177 39.856 23.4091C39.8627 24.1732 39.8689 24.9373 39.8748 25.7014C39.8812 26.5623 39.8867 27.4233 39.8915 28.2843C39.8933 28.6828 39.8947 29.0814 39.8957 29.4802C39.8957 29.5635 39.8977 29.6479 39.8957 29.7316C39.8957 29.7194 39.9178 29.6961 39.9304 29.6982C39.8117 29.6917 39.6927 29.6917 39.574 29.6982C36.8722 29.7034 34.1703 29.7141 31.4683 29.7306C30.2102 29.7364 28.9521 29.7419 27.694 29.7473L27.008 29.7498C26.8445 29.7671 26.6795 29.7662 26.5162 29.7471C26.5818 29.7648 26.5475 29.8138 26.5477 29.6686C26.5477 29.5796 26.5477 29.4912 26.5477 29.4031C26.5477 29.1886 26.5484 28.9741 26.55 28.7595C26.5519 28.33 26.5542 27.9004 26.557 27.4708C26.5673 25.8996 26.5828 24.3286 26.5952 22.7575C26.5962 22.6311 26.5971 22.5046 26.598 22.3781C26.598 22.3199 26.598 22.2614 26.5992 22.2036C26.6029 22.0643 26.6159 22.1679 26.5682 22.1632C26.7269 22.1799 26.9393 22.1585 27.1132 22.158C27.6756 22.1567 28.2379 22.155 28.8001 22.153C32.0897 22.1419 35.3793 22.1249 38.6686 22.102C39.0703 22.0992 39.472 22.0962 39.8738 22.093C40.3894 22.0882 40.3905 21.2878 39.8745 21.292Z" fill="#475467"/>
<path d="M32.8229 30.0949C34.8477 28.389 36.8854 26.695 38.9588 25.0484C39.0942 24.941 39.2299 24.834 39.3658 24.7273C39.4291 24.6778 39.4924 24.6284 39.5557 24.5789L39.6168 24.5315L39.6766 24.485C39.6448 24.5097 39.647 24.508 39.6833 24.48C39.8792 24.33 40.076 24.1799 40.2764 24.0353C40.3658 23.9798 40.4305 23.892 40.4572 23.7902C40.4839 23.6884 40.4706 23.5802 40.4199 23.4879C40.3658 23.3969 40.278 23.3308 40.1756 23.304C40.0731 23.2771 39.9642 23.2916 39.8724 23.3444C38.8886 24.0535 37.9515 24.8302 37.011 25.5943C35.8645 26.5261 34.7243 27.4653 33.5904 28.4122C33.1451 28.7832 32.7004 29.1553 32.2565 29.5283C32.1822 29.6038 32.1406 29.7054 32.1406 29.8113C32.1406 29.9171 32.1822 30.0188 32.2565 30.0942C32.3325 30.1673 32.4339 30.2081 32.5394 30.2081C32.6449 30.2081 32.7463 30.1673 32.8224 30.0942L32.8229 30.0949Z" fill="#475467"/>
<path d="M38.2589 28.4149C38.9995 27.8408 39.7247 27.2478 40.4655 26.6735C40.5028 26.6363 40.5324 26.5922 40.5526 26.5435C40.5728 26.4949 40.5832 26.4427 40.5832 26.3901C40.5832 26.3374 40.5728 26.2852 40.5526 26.2366C40.5324 26.188 40.5028 26.1438 40.4655 26.1066C40.3889 26.0345 40.2877 25.9944 40.1825 25.9944C40.0774 25.9944 39.9762 26.0345 39.8996 26.1066C39.1588 26.6803 38.4336 27.2738 37.693 27.848C37.6558 27.8852 37.6263 27.9293 37.6062 27.9779C37.586 28.0264 37.5757 28.0785 37.5757 28.131C37.5757 28.1836 37.586 28.2357 37.6062 28.2842C37.6263 28.3328 37.6558 28.3769 37.693 28.4141C37.7696 28.4861 37.8708 28.5262 37.9759 28.5262C38.0811 28.5262 38.1823 28.4861 38.2589 28.4141V28.4149Z" fill="#475467"/>
<path d="M10.3859 21.8817C10.6193 22.553 10.8841 23.2128 11.1769 23.8604C11.2307 23.9517 11.3185 24.018 11.421 24.0449C11.5236 24.0718 11.6326 24.0571 11.7243 24.0039C11.8137 23.9483 11.8784 23.8605 11.9051 23.7587C11.9318 23.6569 11.9185 23.5487 11.8679 23.4564C11.7983 23.3023 11.7304 23.1476 11.6641 22.9922C11.6268 22.9053 11.6808 23.0342 11.6474 22.9543C11.6289 22.9098 11.6104 22.8651 11.5921 22.8209C11.5622 22.7482 11.5328 22.6755 11.5039 22.6027C11.3816 22.2942 11.266 21.983 11.1571 21.6689C11.1289 21.5666 11.0611 21.4796 10.9688 21.4272C10.8765 21.3748 10.7671 21.3612 10.6648 21.3894C10.5624 21.4176 10.4755 21.4853 10.4231 21.5776C10.3706 21.67 10.357 21.7793 10.3852 21.8817H10.3859Z" fill="#475467"/>
<path d="M4.5274 39.7634C3.37191 39.7634 2.21641 39.7495 1.06092 39.7467C0.707774 39.7455 0.34712 39.7452 0.13353 40.0802C-0.0248711 40.3285 0.0143122 40.6398 0.0131451 40.921C0.010644 41.5795 -0.00686342 42.2393 0.00297409 42.8975C0.00516746 43.1918 0.0807594 43.4809 0.2229 43.7386C0.365041 43.9963 0.569238 44.2145 0.816987 44.3733C1.23466 44.6401 1.69886 44.6371 2.17406 44.639C3.09101 44.6426 4.00806 44.6457 4.92523 44.6483C5.61603 44.6505 6.30699 44.6538 6.99778 44.6541C7.51266 44.6541 7.5135 43.8538 6.99778 43.8538C5.63937 43.8538 4.28113 43.8463 2.92288 43.8415L1.84392 43.8373C1.44375 43.8354 1.0841 43.6911 0.897187 43.3131C0.813018 43.1015 0.781324 42.8726 0.804815 42.6461C0.806593 42.3291 0.808316 42.0123 0.809984 41.6957C0.811429 41.4072 0.812763 41.1189 0.813985 40.8305C0.813985 40.7578 0.850668 40.5651 0.814986 40.5034C0.788808 40.4582 0.829659 40.5034 0.798312 40.5275C0.781546 40.5332 0.76531 40.5402 0.749791 40.5487C0.807093 40.5509 0.864469 40.5502 0.921698 40.5466C2.12388 40.5499 3.32605 40.5642 4.52823 40.5646C5.04328 40.5646 5.04412 39.7642 4.52823 39.7642L4.5274 39.7634Z" fill="#475467"/>
<path d="M16.5184 34.5092C16.5171 34.3415 16.4701 34.1774 16.3824 34.0345C16.2947 33.8915 16.1696 33.7753 16.0207 33.6982C15.7307 33.5525 15.3774 33.5995 15.0626 33.5995H14.004C13.7062 33.5995 13.3477 33.5485 13.0641 33.654C12.9076 33.7147 12.7705 33.8168 12.6676 33.9495C12.5647 34.0821 12.4997 34.2402 12.4797 34.4069C12.4597 34.5735 12.4855 34.7425 12.5541 34.8957C12.6228 35.0489 12.7318 35.1805 12.8695 35.2765C13.1461 35.4666 13.4883 35.4288 13.8063 35.4288H15.3434C15.5222 35.4426 15.7021 35.4294 15.877 35.3896C16.0634 35.3297 16.2259 35.2122 16.3412 35.054C16.4565 34.8957 16.5186 34.705 16.5184 34.5092C16.5261 34.0799 15.8591 34.0799 15.8515 34.5092C15.8541 34.5709 15.8332 34.6312 15.7929 34.678C15.7526 34.7247 15.6961 34.7543 15.6347 34.7608C15.4038 34.7756 15.1723 34.7759 14.9414 34.7618H13.4556C13.3069 34.7618 13.1665 34.732 13.1346 34.5617C13.1227 34.5051 13.1309 34.4461 13.1579 34.395C13.1848 34.3438 13.2289 34.3037 13.2824 34.2816C13.3701 34.2612 13.4606 34.2559 13.5501 34.2659H15.5255C15.6909 34.2659 15.8475 34.3136 15.8515 34.5087C15.8606 34.9382 16.5276 34.9392 16.5184 34.5092Z" fill="#475467"/>
<path d="M21.3742 40.334C22.8841 40.334 24.3941 40.3351 25.9041 40.3374C28.0535 40.3393 30.203 40.341 32.3523 40.3425C33.1721 40.3425 33.992 40.3429 34.812 40.3437C35.3269 40.3437 35.3277 39.5434 34.812 39.5434C33.0859 39.5434 31.3596 39.5423 29.6333 39.54L23.3672 39.5349C22.7029 39.5349 22.0385 39.5345 21.3742 39.5337C20.8591 39.5337 20.8583 40.334 21.3742 40.334Z" fill="#475467"/>
<path d="M0.945285 36.8961C1.34279 36.8961 1.74029 36.9033 2.13763 36.9081C2.18465 36.9081 2.23167 36.9081 2.27852 36.9098C2.3027 36.9098 2.32671 36.9106 2.35088 36.9123C2.3237 36.9099 2.32387 36.9123 2.35088 36.9173C2.38567 36.9276 2.41732 36.9464 2.44292 36.9721C2.50078 37.0333 2.44292 36.948 2.47894 37.025C2.45359 36.9713 2.49561 37.0817 2.49711 37.088C2.48761 37.0342 2.49544 37.1225 2.49561 37.138C2.49561 37.1904 2.49444 37.2429 2.49378 37.2953C2.48394 38.1188 2.46643 38.9421 2.45293 39.7655C2.44459 40.2807 3.24493 40.2809 3.25327 39.7655C3.26094 39.3053 3.26905 38.8451 3.27761 38.3849C3.28183 38.1395 3.28578 37.8941 3.28945 37.6489C3.30413 37.423 3.30212 37.1964 3.28345 36.9708C3.24887 36.7348 3.13166 36.5186 2.95268 36.3609C2.77369 36.2032 2.54455 36.1141 2.30603 36.1094C1.854 36.0883 1.39748 36.0959 0.944952 36.0954C0.429899 36.0954 0.429066 36.8958 0.944952 36.8958L0.945285 36.8961Z" fill="#475467"/>
</svg>
