<svg width="58" height="13" viewBox="0 0 58 13" fill="none" xmlns="http://www.w3.org/2000/svg">
<path d="M7.74219 3.42045C7.68158 2.88258 7.43158 2.46591 6.99219 2.17045C6.55279 1.87121 5.99976 1.72159 5.3331 1.72159C4.85582 1.72159 4.44295 1.79735 4.09446 1.94886C3.74598 2.09659 3.47514 2.30114 3.28196 2.5625C3.09257 2.82008 2.99787 3.11364 2.99787 3.44318C2.99787 3.7197 3.06226 3.95833 3.19105 4.15909C3.32363 4.35985 3.49598 4.52841 3.7081 4.66477C3.92401 4.79735 4.15507 4.90909 4.40128 5C4.64749 5.08712 4.88423 5.15909 5.11151 5.21591L6.24787 5.51136C6.61908 5.60227 6.99976 5.72538 7.38991 5.88068C7.78007 6.03598 8.14181 6.24053 8.47514 6.49432C8.80848 6.74811 9.07742 7.0625 9.28196 7.4375C9.49029 7.8125 9.59446 8.26136 9.59446 8.78409C9.59446 9.44318 9.42401 10.0284 9.0831 10.5398C8.74598 11.0511 8.25545 11.4545 7.61151 11.75C6.97135 12.0455 6.19673 12.1932 5.28764 12.1932C4.41643 12.1932 3.66264 12.0549 3.02628 11.7784C2.38991 11.5019 1.89181 11.1098 1.53196 10.6023C1.17211 10.0909 0.973248 9.48485 0.935369 8.78409H2.69673C2.73082 9.20455 2.86719 9.55492 3.10582 9.83523C3.34825 10.1117 3.65696 10.3182 4.03196 10.4545C4.41075 10.5871 4.82552 10.6534 5.27628 10.6534C5.77249 10.6534 6.21378 10.5758 6.60014 10.4205C6.99029 10.2614 7.29711 10.0417 7.5206 9.76136C7.74408 9.47727 7.85582 9.14583 7.85582 8.76705C7.85582 8.42235 7.75734 8.14015 7.56037 7.92045C7.36719 7.70076 7.10393 7.51894 6.7706 7.375C6.44105 7.23106 6.06795 7.10417 5.65128 6.99432L4.27628 6.61932C3.34446 6.36553 2.60582 5.99242 2.06037 5.5C1.5187 5.00758 1.24787 4.35606 1.24787 3.54545C1.24787 2.875 1.42969 2.28977 1.79332 1.78977C2.15696 1.28977 2.64938 0.901515 3.2706 0.625C3.89181 0.344697 4.59257 0.204545 5.37287 0.204545C6.16075 0.204545 6.85582 0.342803 7.4581 0.619318C8.06416 0.895833 8.54143 1.27652 8.88992 1.76136C9.2384 2.24242 9.42022 2.79545 9.43537 3.42045H7.74219ZM13.255 6.81818V12H11.5561V0.363636H13.2322V4.69318H13.3402C13.5447 4.22348 13.8572 3.85038 14.2777 3.57386C14.6982 3.29735 15.2474 3.15909 15.9254 3.15909C16.5239 3.15909 17.0466 3.2822 17.4936 3.52841C17.9444 3.77462 18.2929 4.14205 18.5391 4.63068C18.7891 5.11553 18.9141 5.72159 18.9141 6.44886V12H17.2152V6.65341C17.2152 6.01326 17.0504 5.51705 16.7209 5.16477C16.3913 4.80871 15.933 4.63068 15.3459 4.63068C14.9444 4.63068 14.5845 4.71591 14.2663 4.88636C13.9519 5.05682 13.7038 5.30682 13.522 5.63636C13.344 5.96212 13.255 6.35606 13.255 6.81818ZM24.8572 12.1761C24.0391 12.1761 23.325 11.9886 22.7152 11.6136C22.1054 11.2386 21.6319 10.714 21.2947 10.0398C20.9576 9.36553 20.7891 8.57765 20.7891 7.67614C20.7891 6.77083 20.9576 5.97917 21.2947 5.30114C21.6319 4.62311 22.1054 4.09659 22.7152 3.72159C23.325 3.34659 24.0391 3.15909 24.8572 3.15909C25.6754 3.15909 26.3894 3.34659 26.9993 3.72159C27.6091 4.09659 28.0826 4.62311 28.4197 5.30114C28.7569 5.97917 28.9254 6.77083 28.9254 7.67614C28.9254 8.57765 28.7569 9.36553 28.4197 10.0398C28.0826 10.714 27.6091 11.2386 26.9993 11.6136C26.3894 11.9886 25.6754 12.1761 24.8572 12.1761ZM24.8629 10.75C25.3932 10.75 25.8326 10.6098 26.1811 10.3295C26.5296 10.0492 26.7872 9.67614 26.9538 9.21023C27.1243 8.74432 27.2095 8.23106 27.2095 7.67045C27.2095 7.11364 27.1243 6.60227 26.9538 6.13636C26.7872 5.66667 26.5296 5.28977 26.1811 5.00568C25.8326 4.72159 25.3932 4.57955 24.8629 4.57955C24.3288 4.57955 23.8857 4.72159 23.5334 5.00568C23.1849 5.28977 22.9254 5.66667 22.755 6.13636C22.5883 6.60227 22.505 7.11364 22.505 7.67045C22.505 8.23106 22.5883 8.74432 22.755 9.21023C22.9254 9.67614 23.1849 10.0492 23.5334 10.3295C23.8857 10.6098 24.3288 10.75 24.8629 10.75ZM32.4482 12L29.88 3.27273H31.6357L33.3459 9.68182H33.4311L35.147 3.27273H36.9027L38.6072 9.65341H38.6925L40.3913 3.27273H42.147L39.5845 12H37.8516L36.0788 5.69886H35.9482L34.1754 12H32.4482ZM47.255 12.1761C46.3951 12.1761 45.6546 11.9924 45.0334 11.625C44.416 11.2538 43.9387 10.733 43.6016 10.0625C43.2682 9.38826 43.1016 8.59848 43.1016 7.69318C43.1016 6.79924 43.2682 6.01136 43.6016 5.32955C43.9387 4.64773 44.4084 4.11553 45.0107 3.73295C45.6167 3.35038 46.325 3.15909 47.1357 3.15909C47.6281 3.15909 48.1054 3.24053 48.5675 3.40341C49.0296 3.56629 49.4444 3.82197 49.8118 4.17045C50.1792 4.51894 50.469 4.97159 50.6811 5.52841C50.8932 6.08144 50.9993 6.75379 50.9993 7.54545V8.14773H44.0618V6.875H49.3345C49.3345 6.42803 49.2436 6.0322 49.0618 5.6875C48.88 5.33902 48.6243 5.06439 48.2947 4.86364C47.969 4.66288 47.5864 4.5625 47.147 4.5625C46.6697 4.5625 46.2531 4.67992 45.897 4.91477C45.5447 5.14583 45.272 5.44886 45.0788 5.82386C44.8894 6.19508 44.7947 6.59848 44.7947 7.03409V8.02841C44.7947 8.61174 44.897 9.10795 45.1016 9.51705C45.3099 9.92614 45.5997 10.2386 45.9709 10.4545C46.3421 10.6667 46.7758 10.7727 47.272 10.7727C47.594 10.7727 47.8875 10.7273 48.1527 10.6364C48.4179 10.5417 48.647 10.4015 48.8402 10.2159C49.0334 10.0303 49.1811 9.80114 49.2834 9.52841L50.8913 9.81818C50.7625 10.2917 50.5315 10.7064 50.1982 11.0625C49.8686 11.4148 49.4538 11.6894 48.9538 11.8864C48.4576 12.0795 47.8913 12.1761 47.255 12.1761ZM52.8842 12V3.27273H54.5263V4.65909H54.6172C54.7763 4.18939 55.0566 3.82008 55.4581 3.55114C55.8634 3.27841 56.3217 3.14205 56.8331 3.14205C56.9392 3.14205 57.0642 3.14583 57.2081 3.15341C57.3558 3.16098 57.4714 3.17045 57.5547 3.18182V4.80682C57.4865 4.78788 57.3653 4.76705 57.1911 4.74432C57.0168 4.7178 56.8426 4.70455 56.6683 4.70455C56.2668 4.70455 55.9089 4.78977 55.5945 4.96023C55.2839 5.12689 55.0376 5.35985 54.8558 5.65909C54.674 5.95455 54.5831 6.29167 54.5831 6.67045V12H52.8842Z" fill="#101828"/>
</svg>
