<svg width="28" height="28" viewBox="0 0 28 28" fill="none" xmlns="http://www.w3.org/2000/svg">
<g opacity="0.8">
<path fill-rule="evenodd" clip-rule="evenodd" d="M21.2101 5.24986C20.0201 5.17986 17.5701 5.10986 13.8601 5.10986H13.3701C9.8001 5.10986 7.42013 5.17986 6.23013 5.31986C4.62013 5.45986 3.5001 5.87986 2.8701 6.43986C2.3101 6.92986 1.89012 7.83986 1.75012 9.02986C1.68012 9.79986 1.61011 11.4099 1.61011 13.8599V14.2099C1.61011 16.5199 1.6801 18.1299 1.8201 18.8999C2.0301 20.0199 2.38013 20.8599 3.08013 21.3499C3.78013 21.9099 4.97012 22.2599 6.65012 22.3999C7.84012 22.4699 10.2901 22.5399 14.0001 22.5399H14.4901C18.0601 22.5399 20.4401 22.4699 21.6301 22.3299C23.2401 22.1899 24.3601 21.7699 24.9901 21.2099C25.5501 20.7199 25.9701 19.8099 26.1101 18.6199C26.1801 17.8499 26.2501 16.2399 26.2501 13.7899V13.4399C26.2501 11.1299 26.1801 9.51986 26.0401 8.74986C25.8301 7.62986 25.4801 6.78986 24.7801 6.29986C24.0801 5.73986 22.8901 5.38986 21.2101 5.24986ZM18.4801 13.8599L10.7801 18.4799V9.23986L18.4801 13.8599Z" fill="#F2F4F7"/>
</g>
</svg>
